####
#
# OBJ File Generated by Meshlab
#
####
# Object domain0344.obj
#
# Vertices: 123
# Faces: 242
#
####
vn -0.860054 0.426889 0.279415
v 439.699982 134.000229 47.000000
vn -0.047421 0.231203 0.971749
v 443.629272 135.151062 48.096088
vn -0.280831 0.203909 -0.937846
v 443.165649 137.513702 44.740566
vn 0.214371 -0.621583 -0.753446
v 451.461548 128.000229 46.708717
vn 0.045969 0.558081 0.828512
v 451.785706 141.940048 47.003902
vn -0.754891 0.285699 -0.590352
v 441.093506 134.880524 45.339268
vn 0.000000 0.000000 0.000000
v 449.500000 144.112747 45.000000
vn -0.167132 0.464891 0.869450
v 449.500000 141.500229 47.000000
vn 0.076769 0.074671 -0.994249
v 456.971436 137.485916 44.500000
vn 0.103926 -0.144957 -0.983965
v 451.630951 134.857315 44.610352
vn 0.588288 0.691978 -0.418431
v 453.920624 142.405090 45.557034
vn -0.205029 0.248125 0.946782
v 440.985901 132.486023 48.666355
vn -0.052871 -0.085720 0.994915
v 449.000000 130.000137 48.500000
vn -0.371386 0.896706 -0.240813
v 443.744812 139.900055 45.375839
vn 0.313451 0.158785 0.936235
v 456.953003 135.075562 48.612934
vn -0.574566 0.442299 0.688655
v 441.115753 135.110825 47.841869
vn -0.265138 0.602890 -0.752480
v 448.954041 142.593246 43.875984
vn -0.878940 0.011965 -0.476783
v 439.700043 132.500229 46.000000
vn 0.350032 -0.782045 -0.515639
v 445.399994 126.000198 46.660599
vn -0.538440 -0.217094 -0.814219
v 440.804199 130.030090 45.393013
vn 0.787321 -0.584402 0.196471
v 458.142029 131.000229 47.000000
vn -0.353773 0.010441 -0.935273
v 440.896851 132.500153 44.946659
vn 0.130649 -0.254771 0.958135
v 454.000000 130.000137 49.495224
vn 0.344209 0.016109 0.938755
v 443.511810 127.513725 49.068203
vn 0.136329 -0.042777 -0.989740
v 451.480011 137.480240 44.410789
vn -0.351084 -0.535183 0.768323
v 440.911041 125.223190 50.132442
vn 0.081627 0.023987 -0.996374
v 454.000000 137.500183 44.500000
vn 0.440907 -0.101354 0.891812
v 457.158783 132.418365 48.879219
vn 0.485622 -0.867178 -0.110340
v 453.938538 127.508705 48.262985
vn 0.049216 -0.210911 -0.976266
v 449.018860 132.202042 44.772972
vn -0.192038 -0.112555 0.974912
v 451.512726 130.018311 48.973595
vn -0.095767 0.220541 0.970665
v 443.521729 137.521973 47.498131
vn 0.381578 0.267658 0.884736
v 442.412994 127.000191 50.000000
vn -0.009917 -0.295651 -0.955245
v 443.500000 127.170860 45.733360
vn 0.807512 -0.208775 0.551669
v 458.709961 132.627869 47.388561
vn 0.318248 0.850505 0.418759
v 456.511475 139.281372 47.098991
vn 0.227665 -0.154345 -0.961429
v 450.363190 137.545685 44.000000
vn 0.003296 0.211645 0.977341
v 454.061829 135.349121 49.178108
vn 0.375748 0.486636 -0.788669
v 454.131134 140.114868 44.761112
vn -0.157292 0.046895 -0.986438
v 443.486481 135.027222 44.534801
vn 0.007017 0.077011 0.997006
v 446.000000 132.500198 48.500000
vn -0.382439 0.187362 0.904785
v 440.901276 127.658379 50.150341
vn 0.045954 -0.189857 -0.980736
v 446.112701 132.308701 44.892422
vn -0.407147 -0.293419 -0.864949
v 441.085602 127.437469 46.094482
vn -0.932641 0.202856 0.298379
v 439.574738 132.316025 47.368420
vn -0.004805 -0.233768 -0.972281
v 443.686554 130.030243 44.941441
vn 0.893309 -0.353278 -0.277836
v 460.868988 136.000229 46.000000
vn -0.626910 0.566921 -0.534402
v 446.510223 142.222580 45.415096
vn -0.138291 0.111363 0.984111
v 451.779572 134.877701 48.673229
vn 0.656973 -0.497070 -0.566840
v 458.854126 132.665848 45.951599
vn 0.204684 -0.568726 -0.796653
v 446.027374 127.278435 45.856701
vn -0.025804 -0.775408 0.630933
v 451.652863 127.348717 48.193657
vn 0.481024 -0.257217 0.838126
v 442.412994 126.000191 50.000000
vn 0.120986 0.113872 0.986101
v 443.353241 130.059448 48.917900
vn 0.250993 -0.412067 0.875901
v 446.260010 127.244652 48.176334
vn 0.101437 -0.770122 -0.629780
v 443.368408 125.684425 46.469269
vn -0.023328 -0.157522 -0.987240
v 448.875946 137.221039 43.835762
vn -0.048653 0.175373 0.983299
v 446.004669 135.098404 48.087978
vn 0.000000 0.000000 0.000000
v 441.004303 129.007065 50.004971
vn 0.095522 -0.206276 -0.973820
v 445.962952 129.981613 45.430698
vn 0.602627 -0.755214 0.257861
v 456.754578 130.018219 48.128677
vn 0.267612 -0.015307 -0.963405
v 450.500000 140.000229 44.000000
vn 0.091664 -0.322627 -0.942077
v 457.245270 132.603882 45.431400
vn 0.606407 0.768600 0.203774
v 459.003571 139.002747 45.629704
vn -0.144414 0.616375 0.774097
v 446.190155 139.823746 47.202679
vn -0.701522 -0.321590 -0.635961
v 439.959595 126.932472 47.000000
vn -0.043652 0.010074 0.998996
v 449.000000 132.500198 48.500000
vn 0.602042 -0.330273 -0.726956
v 459.689514 134.810364 45.120735
vn -0.039581 -0.109059 -0.993247
v 443.500000 132.500229 44.510754
vn 0.101176 -0.026253 0.994522
v 446.000000 130.000137 48.500000
vn 0.000000 0.000000 0.000000
v 441.000000 123.403183 49.000000
vn -0.090438 0.100474 0.990821
v 448.981812 135.018311 48.476585
vn -0.114472 0.196359 0.973827
v 446.232544 137.442017 47.621632
vn -0.121403 -0.664152 -0.737674
v 441.649994 125.650223 46.673340
vn 0.591070 -0.806593 0.006604
v 445.594574 125.897728 47.656956
vn 0.210471 -0.513924 -0.831615
v 453.986298 130.109695 46.177158
vn -0.025959 0.209888 0.977381
v 451.500000 137.833527 48.266640
vn 0.777866 0.310400 0.546421
v 460.829010 137.000229 46.000000
vn 0.359972 0.591693 0.721332
v 453.000000 141.700226 47.000000
vn 0.188983 -0.639050 -0.745587
v 448.842590 127.649200 46.325787
vn 0.278595 -0.697380 -0.660337
v 456.710236 130.456619 46.191597
vn -0.995222 -0.023884 0.094673
v 439.539032 129.837387 47.744186
vn -0.665137 0.359402 0.654540
v 441.618683 137.469635 47.133625
vn 0.010060 0.311058 0.950338
v 451.472229 140.000183 47.525761
vn -0.999767 -0.017175 0.013044
v 439.554108 127.613129 48.161289
vn -0.299475 0.641871 0.705915
v 443.407898 139.136169 47.091393
vn 0.013942 -0.069130 -0.997510
v 445.981140 134.981277 44.495945
vn 0.027347 0.157377 0.987160
v 443.500000 132.458572 48.551853
vn -0.133560 0.196706 0.971323
v 448.910431 137.810394 48.205353
vn 0.386621 0.218949 -0.895871
v 459.856018 137.713043 45.216930
vn 0.390555 0.516463 0.762058
v 454.028564 140.164963 47.340694
vn 0.316365 0.869781 -0.378674
v 451.390533 143.015411 45.402992
vn 0.005331 -0.145542 -0.989338
v 449.000000 135.035843 44.441772
vn 0.037438 -0.179891 -0.982974
v 454.059479 135.033447 44.994659
vn -0.725354 0.647445 -0.233829
v 442.147003 139.000229 46.000000
vn 0.000000 0.000000 0.000000
v 455.969238 128.062820 48.458332
vn 0.158650 -0.262555 -0.951785
v 451.373718 132.617172 45.092884
vn -0.030783 0.071948 0.996933
v 453.972961 132.486679 49.439728
vn 0.039232 -0.257706 -0.965427
v 454.000000 132.500198 45.492840
vn -0.216357 0.229667 0.948917
v 440.730591 130.223373 49.337196
vn -0.806398 0.288966 -0.515966
v 441.628418 137.574066 45.792652
vn 0.395931 0.223755 -0.890602
v 450.321136 142.571671 44.000000
vn 0.434159 0.462985 0.772756
v 459.496277 137.496521 47.104160
vn -0.128481 0.027832 -0.991321
v 446.027039 137.486664 44.439728
vn 0.265436 0.436274 0.859773
v 456.898376 137.574463 47.817657
vn -0.006778 -0.724449 0.689295
v 449.071289 127.150543 47.858643
vn -0.304502 -0.882264 -0.359011
v 441.044403 124.515060 48.083977
vn 0.695660 -0.169624 0.698058
v 459.440186 134.970993 47.366543
vn -0.600668 0.747392 -0.283906
v 445.804352 140.361313 45.203152
vn 0.408254 -0.823923 0.393038
v 443.529846 125.127930 48.242722
vn -0.333136 0.023138 -0.942595
v 447.500000 138.000229 44.000000
vn 0.053052 -0.149624 -0.987319
v 456.849792 134.828476 44.752872
vn -0.217434 0.411261 0.885204
v 448.899994 140.090469 47.438152
vn 0.280690 0.196032 -0.939566
v 451.500000 140.000183 44.399960
vn 0.342680 0.827829 -0.444149
v 456.817841 140.043793 45.467003
vn -0.457886 0.156724 -0.875088
v 447.500000 140.000229 44.000000
vn 0.097925 -0.279120 -0.955250
v 449.095245 129.893723 45.551857
vn 0.059531 0.310860 0.948590
v 454.017853 137.798416 48.289310
vn -0.185145 0.056205 0.981103
v 451.812500 132.387680 48.786007
vn -0.304256 0.722235 0.621132
v 448.916565 143.228821 45.763275
vn 0.141752 -0.318331 -0.937322
v 451.406799 129.898453 45.975391
vn -0.900195 -0.433944 0.036634
v 439.589233 125.684425 48.631580
vn -0.000428 0.006383 -0.999980
v 449.000000 140.000122 43.633400
# 123 vertices, 0 vertices normals

f 90//90 47//47 68//68
f 110//110 55//55 24//24
f 11//11 79//79 91//91
f 73//73 2//2 58//58
f 91//91 36//36 39//39
f 45//45 6//6 18//18
f 109//109 111//111 104//104
f 21//21 28//28 61//61
f 80//80 4//4 52//52
f 51//51 55//55 75//75
f 28//28 98//98 23//23
f 41//41 67//67 72//72
f 118//118 15//15 105//105
f 5//5 113//113 84//84
f 41//41 72//72 58//58
f 93//93 37//37 25//25
f 69//69 87//87 43//43
f 11//11 92//92 5//5
f 47//47 78//78 108//108
f 49//49 77//77 72//72
f 45//45 18//18 82//82
f 103//103 64//64 115//115
f 20//20 82//82 18//18
f 8//8 113//113 5//5
f 120//120 109//109 113//113
f 35//35 68//68 108//108
f 14//14 3//3 95//95
f 89//89 77//77 113//113
f 41//41 58//58 88//88
f 106//106 52//52 31//31
f 93//93 57//57 37//37
f 26//26 110//110 53//53
f 57//57 62//62 37//37
f 89//89 72//72 77//77
f 122//122 107//107 26//26
f 94//94 112//112 99//99
f 115//115 36//36 105//105
f 73//73 65//65 32//32
f 83//83 6//6 16//16
f 13//13 31//31 119//119
f 56//56 75//75 110//110
f 51//51 34//34 60//60
f 95//95 3//3 101//101
f 102//102 92//92 114//114
f 26//26 53//53 42//42
f 20//20 18//18 22//22
f 115//115 64//64 90//90
f 76//76 81//81 61//61
f 42//42 33//33 24//24
f 61//61 23//23 29//29
f 100//100 24//24 54//54
f 40//40 104//104 87//87
f 45//45 1//1 6//6
f 80//80 106//106 51//51
f 54//54 41//41 88//88
f 119//119 49//49 67//67
f 13//13 67//67 70//70
f 76//76 61//61 29//29
f 118//118 38//38 15//15
f 4//4 121//121 76//76
f 89//89 73//73 72//72
f 80//80 52//52 106//106
f 86//86 65//65 14//14
f 91//91 118//118 105//105
f 52//52 29//29 23//23
f 5//5 91//91 79//79
f 120//120 5//5 92//92
f 70//70 67//67 41//41
f 25//25 62//62 114//114
f 83//83 95//95 101//101
f 31//31 23//23 98//98
f 97//97 94//94 99//99
f 11//11 114//114 92//92
f 9//9 115//115 90//90
f 76//76 99//99 63//63
f 21//21 35//35 28//28
f 109//109 3//3 14//14
f 5//5 84//84 91//91
f 52//52 23//23 31//31
f 12//12 45//45 100//100
f 103//103 108//108 78//78
f 70//70 41//41 54//54
f 76//76 121//121 99//99
f 12//12 100//100 54//54
f 76//76 63//63 81//81
f 24//24 70//70 54//54
f 13//13 106//106 31//31
f 86//86 14//14 95//95
f 91//91 105//105 36//36
f 10//10 27//27 94//94
f 83//83 101//101 6//6
f 49//49 98//98 38//38
f 51//51 56//56 34//34
f 103//103 90//90 64//64
f 120//120 92//92 7//7
f 50//50 35//35 21//21
f 15//15 38//38 98//98
f 32//32 65//65 86//86
f 84//84 113//113 77//77
f 85//85 42//42 82//82
f 43//43 117//117 60//60
f 110//110 24//24 53//53
f 57//57 111//111 123//123
f 115//115 11//11 39//39
f 57//57 123//123 62//62
f 46//46 43//43 60//60
f 94//94 27//27 9//9
f 93//93 30//30 43//43
f 83//83 86//86 95//95
f 100//100 42//42 24//24
f 11//11 5//5 79//79
f 80//80 117//117 121//121
f 50//50 68//68 35//35
f 19//19 75//75 56//56
f 83//83 16//16 2//2
f 109//109 14//14 65//65
f 9//9 90//90 112//112
f 32//32 86//86 83//83
f 32//32 83//83 2//2
f 10//10 25//25 27//27
f 118//118 77//77 49//49
f 43//43 30//30 117//117
f 6//6 22//22 18//18
f 90//90 68//68 112//112
f 97//97 10//10 94//94
f 12//12 54//54 88//88
f 122//122 66//66 107//107
f 6//6 3//3 40//40
f 103//103 115//115 105//105
f 122//122 85//85 66//66
f 74//74 34//34 56//56
f 119//119 98//98 49//49
f 85//85 82//82 20//20
f 17//17 120//120 92//92
f 68//68 47//47 108//108
f 115//115 39//39 36//36
f 97//97 121//121 117//117
f 118//118 49//49 38//38
f 122//122 26//26 85//85
f 49//49 72//72 67//67
f 11//11 91//91 39//39
f 96//96 61//61 29//29
f 35//35 108//108 15//15
f 27//27 25//25 39//39
f 120//120 48//48 109//109
f 20//20 69//69 46//46
f 12//12 1//1 45//45
f 27//27 115//115 9//9
f 6//6 40//40 22//22
f 120//120 8//8 5//5
f 24//24 33//33 53//53
f 112//112 68//68 63//63
f 73//73 58//58 72//72
f 91//91 84//84 118//118
f 103//103 105//105 15//15
f 13//13 119//119 67//67
f 97//97 30//30 10//10
f 27//27 39//39 115//115
f 46//46 69//69 43//43
f 51//51 75//75 19//19
f 4//4 76//76 29//29
f 120//120 113//113 8//8
f 115//115 39//39 11//11
f 13//13 70//70 55//55
f 25//25 114//114 39//39
f 17//17 48//48 120//120
f 109//109 104//104 3//3
f 81//81 50//50 21//21
f 103//103 15//15 108//108
f 109//109 65//65 113//113
f 6//6 1//1 16//16
f 51//51 106//106 55//55
f 46//46 60//60 34//34
f 93//93 25//25 10//10
f 84//84 77//77 118//118
f 116//116 123//123 111//111
f 55//55 70//70 24//24
f 112//112 63//63 99//99
f 6//6 101//101 3//3
f 80//80 121//121 4//4
f 81//81 21//21 61//61
f 97//97 99//99 121//121
f 40//40 3//3 104//104
f 73//73 113//113 65//65
f 50//50 63//63 68//68
f 107//107 44//44 74//74
f 20//20 46//46 44//44
f 80//80 51//51 117//117
f 102//102 17//17 92//92
f 93//93 10//10 30//30
f 46//46 34//34 44//44
f 73//73 32//32 2//2
f 93//93 87//87 104//104
f 107//107 74//74 110//110
f 97//97 117//117 30//30
f 12//12 16//16 1//1
f 61//61 28//28 23//23
f 93//93 43//43 87//87
f 40//40 87//87 69//69
f 11//11 39//39 114//114
f 51//51 19//19 56//56
f 81//81 63//63 50//50
f 42//42 53//53 33//33
f 96//96 29//29 61//61
f 93//93 104//104 57//57
f 35//35 15//15 28//28
f 57//57 104//104 111//111
f 89//89 113//113 73//73
f 116//116 111//111 109//109
f 66//66 44//44 107//107
f 119//119 31//31 98//98
f 88//88 58//58 2//2
f 20//20 22//22 69//69
f 102//102 114//114 62//62
f 66//66 85//85 44//44
f 74//74 44//44 34//34
f 13//13 55//55 106//106
f 37//37 62//62 25//25
f 90//90 78//78 47//47
f 102//102 123//123 17//17
f 116//116 48//48 17//17
f 100//100 42//42 59//59
f 120//120 7//7 92//92
f 4//4 29//29 52//52
f 40//40 69//69 22//22
f 100//100 82//82 42//42
f 102//102 62//62 123//123
f 85//85 26//26 42//42
f 100//100 59//59 42//42
f 12//12 2//2 16//16
f 110//110 75//75 55//55
f 116//116 17//17 123//123
f 103//103 78//78 90//90
f 51//51 60//60 117//117
f 45//45 82//82 100//100
f 94//94 9//9 112//112
f 116//116 109//109 48//48
f 28//28 15//15 98//98
f 107//107 110//110 26//26
f 12//12 88//88 2//2
f 85//85 20//20 44//44
f 74//74 56//56 110//110
# 242 faces, 0 coords texture

# End of File