####
#
# OBJ File Generated by Meshlab
#
####
# Object domain0020.obj
#
# Vertices: 177
# Faces: 350
#
####
vn -0.972861 0.188923 0.133605
v 293.206665 96.000008 95.000000
vn 0.142591 -0.989770 0.004868
v 311.998474 91.113640 96.464516
vn 0.370071 0.834257 0.408733
v 311.177155 102.892906 96.793571
vn -0.557108 0.470120 0.684557
v 299.000000 101.538467 97.716148
vn -0.004400 0.006123 0.999972
v 309.500000 96.000008 100.500000
vn -0.737709 0.619310 -0.268775
v 298.004272 102.996254 95.004807
vn 0.989096 0.147270 0.000305
v 318.214691 96.333344 98.333336
vn -0.581481 -0.640093 0.502155
v 303.075928 94.250687 99.217392
vn -0.428142 -0.834695 0.346378
v 306.269226 92.438683 98.692307
vn -0.611637 0.373007 0.697686
v 297.088104 101.150459 96.647987
vn -0.163974 -0.057229 -0.984803
v 304.644989 95.975006 94.079262
vn 0.025761 0.214150 -0.976461
v 309.633331 98.740036 93.641495
vn 0.038671 -0.068451 -0.996905
v 299.500000 93.500008 94.503357
vn 0.003889 0.078213 -0.996929
v 302.000000 101.000008 94.500000
vn 0.533753 -0.749714 -0.391198
v 314.097046 91.935486 94.933151
vn -0.364661 -0.225768 0.903356
v 302.593750 96.093758 100.428452
vn -0.583200 0.588292 0.560169
v 291.000000 90.000023 95.233589
vn 0.518776 -0.402462 0.754251
v 296.000000 88.461548 95.328888
vn -0.304138 -0.879197 0.366759
v 304.365143 92.828522 97.167732
vn 0.027823 0.128341 -0.991340
v 304.000000 105.079933 96.545456
vn 0.814266 -0.442008 0.376297
v 294.729950 83.356888 93.748901
vn -0.775199 0.332194 -0.537321
v 290.186951 88.542343 94.168411
vn 0.198743 0.040293 0.979223
v 314.485718 95.971436 100.493858
vn -0.071020 -0.775301 -0.627587
v 309.333221 91.376877 94.413902
vn 0.094784 0.490634 0.866195
v 312.000000 99.209679 100.150017
vn -0.865186 0.500828 -0.024980
v 290.910156 90.147942 94.361412
vn 0.000224 -0.000448 -1.000000
v 299.500000 96.000008 94.500000
vn 0.025709 -0.040515 0.998848
v 292.500000 86.000008 95.492836
vn -0.444996 0.760619 0.472692
v 299.377563 103.956238 96.562950
vn 0.033479 0.087170 0.995631
v 304.500000 98.500008 100.500000
vn -0.622831 0.779326 0.068792
v 297.925659 103.114273 96.549957
vn -0.001978 -0.004145 0.999990
v 307.000000 96.000008 100.500000
vn 0.397901 -0.913421 -0.085650
v 314.059570 91.941711 96.649323
vn 0.144298 0.525589 -0.838412
v 309.458099 101.088623 94.539612
vn 0.943558 -0.070110 -0.323701
v 317.201874 96.053482 96.597435
vn 0.695133 0.700734 0.160507
v 316.064362 100.051025 98.066917
vn -0.068153 -0.015116 -0.997560
v 302.000000 96.000008 94.500000
vn 0.098723 0.055292 -0.993578
v 312.000000 96.000008 93.500000
vn -0.310388 -0.947797 -0.073078
v 304.611237 91.987381 95.982834
vn 0.125968 0.982466 -0.137447
v 304.473846 104.529800 96.453789
vn 0.317637 0.406924 0.856458
v 314.680328 98.669579 100.026321
vn 0.311499 -0.132992 -0.940894
v 296.985718 90.756760 94.579262
vn 0.408192 0.596773 -0.690827
v 314.050018 100.040604 94.959450
vn 0.012888 0.151709 0.988341
v 306.971436 98.485718 100.493858
vn 0.023415 0.375965 -0.926338
v 292.205872 87.000008 92.834259
vn -0.055285 0.039520 -0.997688
v 297.000000 98.500008 94.500000
vn 0.513586 -0.371440 -0.773474
v 314.596985 93.469711 94.454231
vn -0.233299 -0.965494 0.115725
v 307.125641 91.386520 96.474716
vn 0.001752 -0.270954 0.962591
v 312.000000 93.500008 100.500000
vn -0.057341 -0.851250 0.521618
v 309.500000 91.717773 99.299767
vn 0.266888 -0.323119 0.907946
v 314.519989 93.480011 100.483749
vn -0.264149 -0.775957 0.572814
v 301.971527 93.358757 96.690582
vn -0.046258 0.023002 -0.998665
v 302.000000 98.500008 94.500000
vn -0.148913 -0.110636 0.982642
v 294.578705 91.244026 95.726295
vn -0.981586 0.174689 0.077289
v 292.987244 93.360840 95.010490
vn 0.062919 0.193431 -0.979094
v 294.586151 91.122635 93.954559
vn 0.284529 0.922570 -0.260591
v 309.543365 103.126015 96.494606
vn 0.815770 0.384477 -0.432084
v 316.498260 98.473175 96.385239
vn -0.864301 0.188725 -0.466226
v 289.349701 86.079094 93.877045
vn -0.126052 0.203345 -0.970959
v 292.486481 88.129715 93.277550
vn 0.404568 0.352887 -0.843680
v 314.575287 98.527740 94.427872
vn -0.299569 -0.142389 0.943390
v 302.000000 98.472229 100.488716
vn -0.033916 -0.161160 -0.986345
v 309.521729 93.521751 93.509338
vn -0.693339 0.697144 -0.182402
v 295.038086 100.360023 94.946182
vn 0.026634 0.072328 -0.997025
v 302.521729 105.142044 96.478264
vn 0.053991 0.401806 -0.914132
v 304.672424 103.152420 94.896988
vn -0.038420 -0.234993 0.971238
v 299.478271 93.478271 96.498131
vn 0.778434 -0.078001 -0.622861
v 316.183411 96.000008 94.858955
vn 0.049021 0.431305 0.900874
v 309.705872 99.374001 100.105896
vn -0.279782 -0.239852 -0.929620
v 290.687500 83.687515 92.526863
vn -0.131481 0.981870 -0.136543
v 301.857727 104.537979 96.448914
vn 0.227232 -0.773720 -0.591374
v 311.983459 91.417084 94.414566
vn -0.232633 -0.786620 -0.571936
v 307.000000 91.769424 94.780312
vn 0.936165 -0.203647 0.286570
v 295.039551 85.920471 94.069603
vn 0.323132 0.001892 -0.946352
v 314.737335 96.077934 93.875061
vn -0.041327 -0.517463 -0.854707
v 292.500000 83.500008 92.503357
vn -0.120209 -0.376618 0.918536
v 306.972229 93.500008 100.479919
vn -0.022764 0.267179 -0.963378
v 307.110291 100.864716 94.347260
vn -0.040699 0.001155 0.999171
v 292.500000 88.500008 95.500000
vn 0.457711 -0.332228 0.824697
v 294.269226 86.230782 95.378288
vn 0.248647 -0.782651 0.570641
v 292.712433 82.520126 94.200882
vn 0.017537 0.122125 0.992360
v 312.000000 98.000015 100.500000
vn 0.257391 0.756675 0.600993
v 309.545441 102.551582 98.000000
vn -0.355533 -0.078018 0.931402
v 294.163635 93.388618 96.201767
vn -0.720379 -0.430720 0.543630
v 300.246155 97.031250 98.538788
vn -0.614933 0.156039 0.772987
v 299.748016 100.862946 98.988754
vn 0.288035 0.098050 -0.952587
v 294.500000 88.138786 93.287323
vn 0.003508 0.002889 0.999990
v 312.000000 96.000008 100.500000
vn -0.213671 -0.368579 0.904707
v 304.384613 94.000008 100.411919
vn -0.383511 -0.664481 -0.641393
v 305.617004 92.000031 95.000000
vn -0.104843 0.177672 -0.978489
v 306.875000 98.735420 93.688072
vn -0.008185 -0.000315 -0.999966
v 297.000000 96.000008 94.500000
vn -0.553371 0.151200 0.819096
v 294.537537 98.265175 96.044395
vn -0.664676 0.465278 0.584571
v 295.137024 100.262199 96.020073
vn -0.465888 0.058667 0.882897
v 290.500000 86.055565 95.488716
vn 0.156987 -0.432544 0.887840
v 296.935486 91.349472 95.842560
vn 0.080316 0.095411 0.992193
v 314.000000 98.000031 100.457001
vn -0.048724 0.124672 -0.991001
v 304.485718 100.971436 94.498772
vn -0.164162 -0.245819 -0.955314
v 306.968109 93.272133 93.863045
vn -0.378192 0.412088 -0.828947
v 292.333649 91.157425 94.199646
vn 0.029544 -0.082829 0.996126
v 294.500000 88.500008 95.489258
vn 0.194978 0.776666 0.598978
v 307.127686 103.095222 98.104446
vn 0.788904 -0.556610 0.260414
v 316.638489 93.421906 99.095673
vn -0.121642 0.776310 0.618503
v 302.218170 103.337372 98.541458
vn -0.071923 -0.161845 0.984192
v 297.000000 93.500008 96.500000
vn -0.011660 -0.267427 0.963508
v 309.500000 93.500008 100.500000
vn 0.397512 0.838152 -0.373477
v 312.366364 101.935966 96.367622
vn -0.423793 0.072402 0.902861
v 294.214630 96.000008 96.247398
vn 0.673929 -0.705991 -0.217707
v 315.269836 92.699928 96.440002
vn 0.704207 0.599338 -0.380638
v 316.024048 100.033394 96.967621
vn -0.625769 -0.779934 -0.010758
v 289.898621 83.050240 93.925728
vn -0.259378 0.200112 0.944816
v 302.000000 100.000008 100.500000
vn -0.198401 -0.693722 0.692377
v 291.000000 81.781525 94.000000
vn -0.139499 0.601297 -0.786754
v 299.461548 103.204544 94.866585
vn -0.328353 -0.270916 0.904869
v 299.474365 95.882355 96.954063
vn -0.195583 0.509890 0.837711
v 301.885254 101.584938 99.856903
vn -0.407474 0.616270 0.673926
v 300.099213 102.861122 97.923698
vn -0.017671 0.010183 -0.999792
v 309.500000 96.000008 93.500000
vn -0.333417 -0.853653 0.400137
v 304.499908 93.277557 98.973274
vn 0.799933 0.085269 0.594000
v 296.130981 85.931358 93.957184
vn 0.357870 -0.606078 -0.710351
v 294.000000 83.461555 92.550613
vn -0.688789 -0.274467 0.670997
v 299.000000 98.384628 97.634285
vn 0.090529 0.456118 0.885303
v 304.488098 101.292877 99.872047
vn -0.104729 -0.034955 -0.993886
v 288.542999 85.000023 94.000000
vn 0.482500 0.838053 -0.254681
v 314.439819 100.898521 96.395836
vn 0.264443 0.950191 -0.164949
v 306.877045 103.773216 96.286064
vn -0.101712 0.137130 -0.985317
v 294.480011 93.520012 94.544388
vn -0.334454 0.214638 0.917645
v 292.580658 90.806458 95.409019
vn -0.618016 -0.492959 0.612411
v 301.562469 95.722885 98.920975
vn -0.127544 -0.042839 0.990907
v 297.000000 96.018524 96.523048
vn 0.767939 -0.401673 -0.498927
v 316.000000 94.617027 95.000000
vn -0.129053 -0.041700 -0.990761
v 307.000000 95.981491 93.523048
vn 0.009590 0.162223 0.986707
v 309.315796 98.368431 100.445839
vn -0.021618 0.087113 -0.995964
v 299.500000 101.000008 94.500000
vn 0.121079 0.426574 0.896312
v 306.987152 101.091324 99.521927
vn -0.012117 -0.014027 0.999828
v 304.514282 96.028580 100.498146
vn 0.039049 0.028071 -0.998843
v 297.000000 93.500008 94.500000
vn 0.731041 -0.107112 0.673873
v 317.224579 95.895248 99.369225
vn -0.025913 -0.442138 -0.896573
v 302.102051 93.181740 94.647987
vn 0.107669 0.260645 -0.959412
v 292.500000 85.500008 92.510742
vn 0.871364 -0.413705 -0.263765
v 316.244995 93.781044 96.740173
vn 0.210560 0.566979 -0.796367
v 311.982391 100.676239 94.751785
vn 0.142575 -0.231920 -0.962229
v 312.142853 93.372833 93.616478
vn 0.370502 -0.896089 0.244442
v 314.666870 91.895599 99.095100
vn 0.255693 0.756736 0.601641
v 311.910706 100.995651 98.699440
vn -0.515176 0.134710 -0.846432
v 290.684204 85.368431 92.567772
vn 0.007272 0.481959 -0.876163
v 302.000000 103.234520 94.850052
vn 0.306104 -0.863522 -0.400786
v 299.709625 91.808975 94.872482
vn 0.309465 0.780757 0.542816
v 314.511200 100.485786 98.686264
vn 0.502355 -0.858082 0.106465
v 301.000000 92.067818 95.000000
vn -0.478048 0.135573 0.867808
v 290.684204 88.368431 95.411400
vn -0.209881 -0.801553 0.559878
v 307.377930 91.913139 99.266418
vn 0.192420 0.621987 -0.759017
v 306.750000 102.669029 95.043854
vn 0.801118 0.475761 0.363128
v 316.842041 98.465752 98.742615
vn 0.127536 0.211982 -0.968916
v 311.981140 98.813683 93.753372
vn 0.637064 0.283021 -0.716972
v 316.000000 97.435730 95.000000
vn 0.130406 0.568416 0.812341
v 309.496277 101.019722 99.166679
vn 0.505422 0.166866 -0.846584
v 294.500000 85.500008 92.558983
vn -0.151655 0.035775 -0.987786
v 294.500000 96.000008 94.539352
vn -0.443153 -0.256077 0.859093
v 290.384613 84.000015 95.392944
vn 0.102304 0.676187 0.729593
v 304.487030 103.148888 98.699615
vn -0.393073 -0.880240 0.265839
v 306.000000 92.219429 97.000000
vn -0.560800 0.228797 -0.795711
v 294.356384 98.445190 94.816612
vn 0.098311 -0.467715 0.878395
v 292.538452 84.000015 95.335808
vn -0.205577 -0.924336 0.321468
v 292.294128 81.793465 93.352943
vn 0.000000 0.000000 -1.000000
v 299.500000 98.500008 94.500000
vn -0.356575 -0.077406 0.931055
v 297.333649 98.509270 96.800827
vn -0.196352 -0.349595 -0.916095
v 304.702362 93.285385 94.583618
vn -0.146730 0.098943 -0.984216
v 304.717926 98.489441 94.141884
vn 0.641728 -0.158049 -0.750470
v 296.635895 88.555450 94.422180
vn -0.564550 -0.615996 0.549392
v 301.000000 95.000015 97.282707
vn 0.040914 -0.865643 0.498987
v 312.000000 91.716042 99.299782
vn 0.149920 -0.679051 0.718619
v 299.638733 91.916969 96.075378
vn -0.285085 0.320035 -0.903496
v 296.970215 101.159561 94.668343
vn -0.042926 -0.993721 0.103324
v 309.514282 91.023964 96.499756
vn -0.637206 -0.183278 0.748583
v 299.779205 98.401306 99.353790
vn 0.111839 0.171671 0.978785
v 304.583344 100.000008 100.396339
# 177 vertices, 0 vertices normals

f 9//9 77//77 119//119
f 71//71 20//20 40//40
f 134//134 174//174 114//114
f 113//113 111//111 165//165
f 106//106 88//88 5//5
f 97//97 41//41 82//82
f 145//145 157//157 25//25
f 40//40 71//71 104//104
f 91//91 12//12 132//132
f 32//32 77//77 5//5
f 130//130 105//105 115//115
f 173//173 148//148 52//52
f 70//70 76//76 111//111
f 41//41 154//154 149//149
f 130//130 108//108 84//84
f 109//109 103//103 144//144
f 52//52 150//150 139//139
f 142//142 12//12 34//34
f 58//58 154//154 35//35
f 22//22 60//60 59//59
f 3//3 57//57 145//145
f 54//54 84//84 55//55
f 102//102 161//161 135//135
f 51//51 49//49 172//172
f 81//81 164//164 111//111
f 82//82 41//41 25//25
f 104//104 117//117 116//116
f 74//74 170//170 18//18
f 174//174 64//64 10//10
f 53//53 169//169 37//37
f 53//53 98//98 169//169
f 128//128 54//54 55//55
f 126//126 102//102 57//57
f 162//162 48//48 9//9
f 153//153 126//126 57//57
f 62//62 177//177 112//112
f 78//78 66//66 153//153
f 172//172 50//50 175//175
f 114//114 174//174 6//6
f 12//12 142//142 155//155
f 88//88 82//82 5//5
f 89//89 8//8 119//119
f 50//50 152//152 48//48
f 29//29 10//10 4//4
f 127//127 100//100 55//55
f 57//57 102//102 83//83
f 56//56 87//87 60//60
f 74//74 21//21 120//120
f 56//56 100//100 127//127
f 80//80 81//81 74//74
f 72//72 24//24 143//143
f 169//169 91//91 11//11
f 126//126 40//40 102//102
f 111//111 164//164 160//160
f 144//144 103//103 51//51
f 64//64 163//163 93//93
f 113//113 81//81 111//111
f 61//61 38//38 155//155
f 169//169 78//78 91//91
f 34//34 57//57 107//107
f 136//136 44//44 30//30
f 140//140 70//70 146//146
f 106//106 152//152 50//50
f 53//53 14//14 98//98
f 31//31 114//114 6//6
f 130//130 167//167 108//108
f 27//27 37//37 13//13
f 54//54 128//128 79//79
f 73//73 168//168 99//99
f 29//29 114//114 31//31
f 167//167 122//122 86//86
f 133//133 82//82 25//25
f 164//164 28//28 160//160
f 177//177 62//62 30//30
f 157//157 102//102 135//135
f 46//46 134//134 166//166
f 110//110 36//36 58//58
f 166//166 27//27 92//92
f 170//170 87//87 42//42
f 27//27 137//137 92//92
f 159//159 92//92 127//127
f 174//174 163//163 64//64
f 176//176 122//122 85//85
f 50//50 48//48 175//175
f 54//54 79//79 101//101
f 21//21 81//81 121//121
f 8//8 52//52 119//119
f 24//24 63//63 143//143
f 133//133 32//32 5//5
f 103//103 138//138 51//51
f 78//78 153//153 34//34
f 137//137 56//56 127//127
f 99//99 168//168 132//132
f 74//74 140//140 45//45
f 109//109 141//141 103//103
f 86//86 176//176 112//112
f 42//42 137//137 13//13
f 88//88 97//97 82//82
f 87//87 74//74 120//120
f 85//85 122//122 115//115
f 167//167 93//93 108//108
f 147//147 71//71 40//40
f 46//46 92//92 159//159
f 107//107 3//3 145//145
f 136//136 16//16 89//89
f 67//67 96//96 173//173
f 45//45 146//146 59//59
f 33//33 144//144 2//2
f 35//35 141//141 68//68
f 76//76 81//81 111//111
f 158//158 140//140 74//74
f 63//63 99//99 118//118
f 68//68 75//75 156//156
f 59//59 111//111 124//124
f 29//29 31//31 10//10
f 166//166 53//53 27//27
f 163//163 1//1 108//108
f 118//118 12//12 155//155
f 65//65 20//20 40//40
f 87//87 74//74 60//60
f 157//157 69//69 25//25
f 31//31 6//6 10//10
f 48//48 24//24 175//175
f 171//171 115//115 52//52
f 94//94 64//64 93//93
f 75//75 143//143 38//38
f 17//17 128//128 100//100
f 80//80 74//74 18//18
f 105//105 54//54 96//96
f 140//140 146//146 45//45
f 8//8 129//129 52//52
f 139//139 11//11 168//168
f 24//24 48//48 73//73
f 144//144 172//172 2//2
f 101//101 80//80 18//18
f 47//47 75//75 68//68
f 10//10 86//86 4//4
f 40//40 126//126 153//153
f 46//46 166//166 92//92
f 129//129 115//115 171//171
f 40//40 161//161 102//102
f 92//92 137//137 127//127
f 41//41 97//97 23//23
f 49//49 50//50 172//172
f 161//161 104//104 116//116
f 125//125 145//145 149//149
f 4//4 86//86 117//117
f 15//15 72//72 47//47
f 84//84 1//1 55//55
f 129//129 16//16 62//62
f 94//94 93//93 10//10
f 144//144 51//51 172//172
f 57//57 83//83 145//145
f 167//167 130//130 115//115
f 143//143 75//75 47//47
f 100//100 128//128 55//55
f 74//74 45//45 60//60
f 23//23 49//49 51//51
f 158//158 21//21 121//121
f 173//173 96//96 148//148
f 22//22 151//151 26//26
f 106//106 50//50 49//49
f 137//137 27//27 13//13
f 88//88 49//49 23//23
f 129//129 171//171 52//52
f 33//33 15//15 109//109
f 131//131 141//141 47//47
f 122//122 167//167 115//115
f 166//166 134//134 14//14
f 168//168 11//11 132//132
f 44//44 135//135 30//30
f 140//140 158//158 76//76
f 46//46 174//174 134//134
f 41//41 145//145 25//25
f 24//24 72//72 2//2
f 19//19 162//162 9//9
f 151//151 22//22 95//95
f 22//22 26//26 100//100
f 81//81 111//111 165//165
f 61//61 75//75 38//38
f 87//87 56//56 42//42
f 71//71 114//114 29//29
f 154//154 36//36 149//149
f 59//59 111//111 160//160
f 93//93 167//167 10//10
f 163//163 159//159 1//1
f 16//16 8//8 89//89
f 52//52 148//148 150//150
f 100//100 56//56 60//60
f 146//146 70//70 111//111
f 22//22 59//59 95//95
f 141//141 138//138 103//103
f 63//63 24//24 99//99
f 12//12 91//91 34//34
f 28//28 79//79 95//95
f 46//46 163//163 174//174
f 96//96 54//54 101//101
f 71//71 65//65 20//20
f 48//48 19//19 39//39
f 131//131 47//47 68//68
f 133//133 135//135 44//44
f 96//96 18//18 42//42
f 105//105 130//130 84//84
f 104//104 71//71 117//117
f 141//141 35//35 138//138
f 145//145 41//41 149//149
f 147//147 40//40 66//66
f 117//117 86//86 116//116
f 19//19 9//9 119//119
f 61//61 125//125 58//58
f 58//58 68//68 156//156
f 116//116 86//86 112//112
f 73//73 90//90 168//168
f 123//123 177//177 135//135
f 133//133 44//44 32//32
f 134//134 147//147 14//14
f 90//90 73//73 39//39
f 81//81 113//113 165//165
f 97//97 88//88 23//23
f 38//38 118//118 155//155
f 151//151 17//17 26//26
f 71//71 29//29 117//117
f 96//96 42//42 148//148
f 6//6 174//174 10//10
f 141//141 131//131 68//68
f 60//60 45//45 59//59
f 128//128 17//17 151//151
f 66//66 40//40 153//153
f 27//27 53//53 37//37
f 110//110 125//125 36//36
f 61//61 43//43 125//125
f 79//79 28//28 101//101
f 163//163 46//46 159//159
f 14//14 147//147 66//66
f 56//56 137//137 42//42
f 75//75 61//61 156//156
f 161//161 123//123 135//135
f 108//108 1//1 84//84
f 61//61 142//142 43//43
f 77//77 89//89 119//119
f 154//154 41//41 138//138
f 128//128 151//151 79//79
f 63//63 118//118 38//38
f 177//177 123//123 112//112
f 125//125 107//107 145//145
f 48//48 152//152 9//9
f 87//87 170//170 120//120
f 95//95 59//59 160//160
f 148//148 13//13 139//139
f 28//28 95//95 160//160
f 176//176 62//62 112//112
f 33//33 109//109 144//144
f 73//73 48//48 39//39
f 125//125 142//142 107//107
f 52//52 139//139 39//39
f 123//123 116//116 112//112
f 41//41 23//23 138//138
f 93//93 163//163 108//108
f 10//10 167//167 86//86
f 98//98 14//14 66//66
f 39//39 139//139 168//168
f 152//152 77//77 9//9
f 28//28 164//164 80//80
f 138//138 23//23 51//51
f 109//109 15//15 47//47
f 115//115 67//67 52//52
f 40//40 104//104 161//161
f 53//53 166//166 14//14
f 157//157 135//135 69//69
f 80//80 164//164 81//81
f 16//16 136//136 30//30
f 1//1 159//159 55//55
f 153//153 57//57 34//34
f 58//58 36//36 154//154
f 170//170 74//74 120//120
f 62//62 16//16 30//30
f 72//72 33//33 2//2
f 11//11 91//91 132//132
f 169//169 11//11 37//37
f 134//134 114//114 147//147
f 141//141 109//109 47//47
f 32//32 44//44 136//136
f 159//159 127//127 55//55
f 125//125 110//110 58//58
f 88//88 106//106 49//49
f 24//24 73//73 99//99
f 143//143 63//63 38//38
f 64//64 94//94 10//10
f 28//28 80//80 101//101
f 57//57 3//3 107//107
f 146//146 111//111 59//59
f 13//13 37//37 139//139
f 67//67 105//105 96//96
f 147//147 114//114 71//71
f 7//7 154//154 138//138
f 69//69 135//135 133//133
f 142//142 34//34 107//107
f 77//77 106//106 5//5
f 83//83 157//157 145//145
f 70//70 140//140 76//76
f 2//2 172//172 175//175
f 32//32 136//136 89//89
f 19//19 52//52 39//39
f 96//96 101//101 18//18
f 72//72 143//143 47//47
f 91//91 78//78 34//34
f 37//37 11//11 139//139
f 58//58 35//35 68//68
f 123//123 161//161 116//116
f 142//142 61//61 155//155
f 105//105 84//84 54//54
f 129//129 85//85 115//115
f 76//76 158//158 121//121
f 99//99 132//132 118//118
f 69//69 133//133 25//25
f 8//8 16//16 129//129
f 82//82 133//133 5//5
f 72//72 15//15 33//33
f 35//35 154//154 7//7
f 169//169 98//98 78//78
f 35//35 7//7 138//138
f 170//170 18//18 42//42
f 24//24 2//2 175//175
f 32//32 89//89 77//77
f 132//132 12//12 118//118
f 61//61 58//58 156//156
f 152//152 106//106 77//77
f 29//29 4//4 117//117
f 71//71 65//65 40//40
f 81//81 76//76 121//121
f 19//19 48//48 162//162
f 90//90 39//39 168//168
f 86//86 122//122 176//176
f 79//79 151//151 95//95
f 150//150 148//148 139//139
f 26//26 17//17 100//100
f 83//83 102//102 157//157
f 148//148 42//42 13//13
f 105//105 67//67 115//115
f 21//21 158//158 74//74
f 81//81 21//21 74//74
f 176//176 85//85 129//129
f 98//98 66//66 78//78
f 52//52 19//19 119//119
f 135//135 177//177 30//30
f 176//176 129//129 62//62
f 67//67 173//173 52//52
f 43//43 142//142 125//125
f 36//36 125//125 149//149
f 22//22 100//100 60//60
# 350 faces, 0 coords texture

# End of File